<svg width="43" height="54" viewBox="0 0 43 54" fill="none" xmlns="http://www.w3.org/2000/svg">
<path d="M34.5345 35.2125C33.8618 35.3812 32.9087 35.4375 31.8996 35.2687C30.7784 35.1 29.6571 34.7625 28.5359 34.2563C30.498 33.975 32.0678 34.0312 33.3572 34.5375C33.6936 34.65 34.1982 34.9875 34.5345 35.2125ZM23.4902 33.4125C23.4342 33.4125 23.322 33.4688 23.266 33.4688C22.7053 33.6375 22.2008 33.75 21.6962 33.8625L21.0235 34.0312C19.678 34.3688 18.2764 34.7062 16.9309 35.1562C17.4355 33.9188 17.94 32.625 18.3885 31.3875C18.7249 30.4875 19.1173 29.5312 19.4537 28.575C19.6219 28.9125 19.8462 29.1938 20.0143 29.5312C20.9674 30.9375 22.1447 32.2875 23.4902 33.4125ZM20.0143 19.2375C20.1265 20.8125 19.7901 22.275 19.2855 23.7375C18.6688 21.9375 18.3885 20.025 19.1734 18.45C19.3416 18.0562 19.5098 17.8312 19.6219 17.7188C19.7901 17.8875 20.0143 18.45 20.0143 19.2375ZM12.9505 38.8687C12.6141 39.4875 12.2777 40.05 11.8853 40.6125C11.0443 41.9062 9.64276 43.3125 8.91395 43.3125C8.85789 43.3125 8.74576 43.3125 8.63364 43.1437C8.57758 43.0312 8.52151 42.975 8.52151 42.9188C8.52151 42.4688 9.19426 41.5687 10.0913 40.7812C10.9883 40.1063 11.8853 39.4312 12.9505 38.8687ZM36.8331 35.325C36.721 33.75 34.0861 32.7375 34.03 32.7375C33.0209 32.3438 31.8996 32.175 30.6102 32.175C29.2647 32.175 27.807 32.4 25.9009 32.7938C24.219 31.6125 22.7614 30.0938 21.6962 28.4625C21.1917 27.7312 20.7992 27 20.4068 26.2688C21.3038 24.075 22.1447 21.7125 21.9765 19.0688C21.8644 16.9313 20.9113 15.525 19.6219 15.525C18.7249 15.525 17.9961 16.2 17.3794 17.4937C16.2582 19.8 16.5385 22.7812 18.2203 26.325C17.6037 27.7312 17.043 29.25 16.4824 30.6562C15.8096 32.4562 15.0808 34.2562 14.296 36C12.1095 36.9 10.2595 37.9125 8.74576 39.2625C7.73664 40.1063 6.55932 41.4 6.50326 42.8062C6.4472 43.425 6.67145 44.0438 7.11995 44.4937C7.56845 45 8.18514 45.2812 8.85789 45.2812C10.9883 45.2812 13.1186 42.3 13.5111 41.7375C14.296 40.5562 15.0248 39.2062 15.7536 37.6875C17.6037 37.0125 19.5098 36.5062 21.4159 36.0562L22.0887 35.8875C22.5932 35.775 23.1538 35.6063 23.6584 35.4375C24.219 35.2687 24.8357 35.1 25.4524 34.9875C27.4146 36.225 29.4889 37.0125 31.5072 37.35C33.2451 37.575 34.7588 37.4625 35.7679 36.9C36.7771 36.3375 36.8331 35.6063 36.8331 35.325ZM40.9818 48.9375C40.9818 51.8625 38.4589 52.0312 37.8983 52.0312H5.04563C2.18644 52.0312 1.96219 49.4437 1.96219 48.9375V5.0625C1.96219 2.1375 4.54107 1.96875 5.04563 1.96875H27.2464V10.6875C27.2464 12.4312 28.3116 15.75 32.292 15.75H40.9257L40.9818 15.8063V48.9375ZM38.9635 13.7812H32.292C29.4329 13.7812 29.2086 11.1938 29.2086 10.6875V3.99375L38.9635 13.7812ZM43 48.9375V15.0188L29.2647 1.18125V1.125H29.2086L28.0874 0H5.04563C3.30769 0 0 1.06875 0 5.0625V48.9375C0 50.6813 1.06519 54 5.04563 54H37.9544C39.6923 54 43 52.9313 43 48.9375Z" fill="white"/>
</svg>
